<?xml version="1.0" standalone="no"?><!DOCTYPE svg PUBLIC "-//W3C//DTD SVG 1.1//EN" "http://www.w3.org/Graphics/SVG/1.1/DTD/svg11.dtd"><svg t="1744191832774" class="icon" viewBox="0 0 1024 1024" version="1.1" xmlns="http://www.w3.org/2000/svg" p-id="1065" xmlns:xlink="http://www.w3.org/1999/xlink" width="32" height="32"><path d="M523.86 330.71c-0.35 0-0.7 0-1.05-0.02-13.77-0.57-24.51-12.24-23.94-26.02 2.39-57.47-30.81-76.41-32.68-77.42-5.91-3.02-10.3-8.15-12.37-14.47-2.08-6.35-1.57-13.12 1.45-19.08 4.28-8.46 12.83-13.71 22.32-13.71 3.89 0 7.79 0.93 11.28 2.7 1.7 0.86 14.41 7.59 27.71 22.73 41.81-64.46 97.51-78.47 138.01-78.47 14 0 28.37 1.64 42.7 4.87a35.204 35.204 0 0 1 24.83 21 35.329 35.329 0 0 1-3.05 32.51c-42.81 66.3-107.23 80.22-153.74 80.22-6.53 0-13.13-0.27-19.74-0.82 2.77 13.18 3.85 27.26 3.24 42.03a24.928 24.928 0 0 1-24.97 23.96z" fill="#BAD0AB" p-id="1066"></path><path d="M654.59 136.94c15.24 0 29.12 2.06 40.51 4.62 17.14 3.86 25.11 23.57 15.58 38.33-40.13 62.14-100.46 75.64-145.34 75.64-12.5 0-23.81-1.05-33.14-2.39 4.73 14.58 7.52 32.17 6.65 53.19-0.33 8.06-6.98 14.38-14.98 14.38-0.21 0-0.42 0-0.63-0.01-8.28-0.34-14.71-7.33-14.36-15.61 2.72-65.3-37.65-86.51-38.06-86.71-7.39-3.74-10.35-12.77-6.61-20.16 2.64-5.22 7.92-8.23 13.4-8.23 2.28 0 4.59 0.52 6.76 1.62 1.29 0.66 18.49 9.65 33.25 31.45 39.08-69.38 93.54-86.11 136.99-86.11m-0.02-20.01c-40.78 0-96.05 13.31-139.33 72.73-10.56-9.85-19.45-14.69-21.87-15.91a35.13 35.13 0 0 0-15.79-3.77c-13.28 0-25.25 7.36-31.24 19.2-4.22 8.34-4.94 17.83-2.03 26.71 2.87 8.75 8.93 15.89 17.09 20.14 0.79 0.47 7.86 4.83 14.51 14.6 9.5 13.94 13.86 31.98 12.96 53.62-0.8 19.28 14.23 35.62 33.52 36.42 0.5 0.02 0.98 0.03 1.46 0.03 18.82 0 34.18-14.74 34.96-33.55 0.46-10.96 0.02-21.56-1.29-31.75 2.61 0.08 5.21 0.12 7.81 0.12 29.93 0 57.65-5.44 82.41-16.17 32.64-14.15 59.47-37.23 79.74-68.62 8.03-12.44 9.49-28.03 3.9-41.72-5.57-13.64-17.5-23.73-31.89-26.97-15.06-3.39-30.16-5.11-44.9-5.11z" fill="#88A86F" p-id="1067"></path><path d="M835.6 619.73c0 176.66-143.21 269.97-319.87 269.97s-319.87-93.31-319.87-269.97 143.21-299.91 319.87-299.91S835.6 443.07 835.6 619.73z" fill="#F9AF5F" p-id="1068"></path><path d="M515.73 899.7c-45.33 0-88.19-5.98-127.39-17.76-40.11-12.06-75.42-29.93-104.97-53.11-63.8-50.05-97.52-122.35-97.52-209.1s34.43-166.46 96.94-223.58c60.92-55.67 143.64-86.33 232.93-86.33s172.01 30.66 232.93 86.33c62.51 57.12 96.94 136.53 96.94 223.58s-33.72 159.05-97.52 209.1c-29.55 23.18-64.86 41.05-104.97 53.11-39.2 11.79-82.06 17.76-127.39 17.76z m0-569.88c-84.28 0-162.21 28.8-219.44 81.09-28.47 26.02-50.73 56.8-66.16 91.49-16.11 36.22-24.27 75.69-24.27 117.33 0 80.38 31.07 147.25 89.86 193.36 27.58 21.63 60.68 38.35 98.38 49.69 37.33 11.22 78.25 16.92 121.63 16.92s84.3-5.69 121.63-16.92c37.71-11.34 70.81-28.06 98.38-49.69 58.79-46.12 89.86-112.98 89.86-193.36 0-41.63-8.17-81.11-24.27-117.33-15.43-34.69-37.69-65.48-66.16-91.49-57.22-52.29-135.16-81.09-219.44-81.09z" fill="#DB7B1B" p-id="1069"></path><path d="M602.02 673.68m-26.44 0a26.44 26.44 0 1 0 52.88 0 26.44 26.44 0 1 0-52.88 0Z" fill="#FFFFFF" p-id="1070"></path><path d="M692.46 725.15m-26.44 0a26.44 26.44 0 1 0 52.88 0 26.44 26.44 0 1 0-52.88 0Z" fill="#FFFFFF" p-id="1071"></path><path d="M576.45 773.88m-26.44 0a26.44 26.44 0 1 0 52.88 0 26.44 26.44 0 1 0-52.88 0Z" fill="#FFFFFF" p-id="1072"></path><path d="M715.11 626.17m-26.44 0a26.44 26.44 0 1 0 52.88 0 26.44 26.44 0 1 0-52.88 0Z" fill="#FFFFFF" p-id="1073"></path></svg>